<svg width="52" height="53" viewBox="0 0 52 53" fill="none" xmlns="http://www.w3.org/2000/svg">
<g clip-path="url(#clip0_2127_1347)">
<path d="M23.8333 26.5C24.408 26.5 24.9591 26.7283 25.3654 27.1346C25.7717 27.5409 26 28.092 26 28.6667C26 29.2413 25.7717 29.7924 25.3654 30.1987C24.9591 30.6051 24.408 30.8333 23.8333 30.8333H17.3333C16.7587 30.8333 16.2076 30.6051 15.8013 30.1987C15.3949 29.7924 15.1667 29.2413 15.1667 28.6667C15.1667 28.092 15.3949 27.5409 15.8013 27.1346C16.2076 26.7283 16.7587 26.5 17.3333 26.5H23.8333ZM36.8333 20C36.8333 19.4254 36.6051 18.8743 36.1987 18.4679C35.7924 18.0616 35.2413 17.8333 34.6667 17.8333H17.3333C16.7587 17.8333 16.2076 18.0616 15.8013 18.4679C15.3949 18.8743 15.1667 19.4254 15.1667 20C15.1667 20.5746 15.3949 21.1257 15.8013 21.5321C16.2076 21.9384 16.7587 22.1667 17.3333 22.1667H34.6667C35.2413 22.1667 35.7924 21.9384 36.1987 21.5321C36.6051 21.1257 36.8333 20.5746 36.8333 20ZM17.3333 13.5H34.6667C35.2413 13.5 35.7924 13.2717 36.1987 12.8654C36.6051 12.4591 36.8333 11.908 36.8333 11.3333C36.8333 10.7587 36.6051 10.2076 36.1987 9.80127C35.7924 9.39494 35.2413 9.16667 34.6667 9.16667H17.3333C16.7587 9.16667 16.2076 9.39494 15.8013 9.80127C15.3949 10.2076 15.1667 10.7587 15.1667 11.3333C15.1667 11.908 15.3949 12.4591 15.8013 12.8654C16.2076 13.2717 16.7587 13.5 17.3333 13.5ZM43.3333 42.6287V50.9335C43.3335 51.2426 43.2419 51.5448 43.0703 51.8018C42.8987 52.0588 42.6546 52.2592 42.3691 52.3775C42.0835 52.4958 41.7693 52.5267 41.4662 52.4664C41.1631 52.406 40.8846 52.2571 40.6662 52.0385L39 50.3745L37.3338 52.0385C37.1154 52.2571 36.8369 52.406 36.5338 52.4664C36.2307 52.5267 35.9165 52.4958 35.6309 52.3775C35.3454 52.2592 35.1013 52.0588 34.9297 51.8018C34.7581 51.5448 34.6665 51.2426 34.6667 50.9335V42.6287C33.0143 41.6793 31.7222 40.2101 30.9916 38.45C30.2611 36.6898 30.1331 34.7375 30.6276 32.897C31.122 31.0565 32.2112 29.4312 33.7256 28.2742C35.2399 27.1172 37.0943 26.4934 39 26.5C39.7324 26.5092 40.4606 26.6126 41.1667 26.8077V11.3333C41.1667 9.60943 40.4818 7.95613 39.2629 6.73714C38.0439 5.51815 36.3906 4.83333 34.6667 4.83333H17.3333C15.6094 4.83333 13.9561 5.51815 12.7371 6.73714C11.5182 7.95613 10.8333 9.60943 10.8333 11.3333V37.3333C10.8333 39.0572 11.5182 40.7105 12.7371 41.9295C13.9561 43.1485 15.6094 43.8333 17.3333 43.8333H28.1667C28.7413 43.8333 29.2924 44.0616 29.6987 44.4679C30.1051 44.8743 30.3333 45.4254 30.3333 46C30.3333 46.5746 30.1051 47.1257 29.6987 47.5321C29.2924 47.9384 28.7413 48.1667 28.1667 48.1667H17.3333C14.4612 48.1632 11.7077 47.0208 9.67681 44.9899C7.64591 42.959 6.50344 40.2055 6.5 37.3333V11.3333C6.50344 8.46121 7.64591 5.70771 9.67681 3.67681C11.7077 1.64591 14.4612 0.50344 17.3333 0.5L34.6667 0.5C37.5388 0.50344 40.2923 1.64591 42.3232 3.67681C44.3541 5.70771 45.4966 8.46121 45.5 11.3333V29.4943C46.3487 30.4474 46.9735 31.5783 47.3287 32.8041C47.6839 34.0299 47.7604 35.3196 47.5527 36.5788C47.345 37.838 46.8582 39.0348 46.1282 40.0816C45.3981 41.1284 44.4432 41.9987 43.3333 42.6287ZM43.3333 35.1667C43.3333 34.3096 43.0792 33.4718 42.603 32.7592C42.1269 32.0466 41.4501 31.4912 40.6583 31.1632C39.8665 30.8352 38.9952 30.7494 38.1546 30.9166C37.314 31.0838 36.5419 31.4965 35.9359 32.1025C35.3298 32.7086 34.9171 33.4807 34.7499 34.3213C34.5827 35.1619 34.6685 36.0331 34.9965 36.825C35.3245 37.6168 35.8799 38.2935 36.5925 38.7697C37.3051 39.2459 38.1429 39.5 39 39.5C40.1493 39.5 41.2515 39.0435 42.0641 38.2308C42.8768 37.4181 43.3333 36.3159 43.3333 35.1667Z" fill="#0098DA"/>
</g>
<defs>
<clipPath id="clip0_2127_1347">
<rect width="52" height="52" fill="white" transform="translate(0 0.5)"/>
</clipPath>
</defs>
</svg>
