<svg width="40" height="40" viewBox="0 0 40 40" fill="none" xmlns="http://www.w3.org/2000/svg">
<g clip-path="url(#clip0_2127_1356)">
<path d="M38.3329 1.64637C37.7426 1.05752 37.0292 0.60682 36.2439 0.326703C35.4586 0.0465867 34.6209 -0.0559854 33.7913 0.0263665C29.2946 0.461367 14.1546 2.34303 8.19958 8.29803C5.40328 11.1141 3.70363 14.8356 3.40635 18.7931C3.10908 22.7505 4.2337 26.6841 6.57791 29.8864L0.731247 35.7314C0.262256 36.2004 -0.0012207 36.8364 -0.0012207 37.4997C-0.0012207 38.163 0.262256 38.799 0.731247 39.268C1.20024 39.737 1.83633 40.0005 2.49958 40.0005C3.16283 40.0005 3.79892 39.737 4.26791 39.268L10.1129 33.4214C13.3152 35.7656 17.2488 36.8902 21.2062 36.5929C25.1637 36.2957 28.8852 34.596 31.7013 31.7997C37.7396 25.7614 39.5613 10.6664 39.9746 6.18137C40.0528 5.35114 39.9461 4.51389 39.6623 3.72978C39.3784 2.94566 38.9244 2.23415 38.3329 1.64637ZM28.1663 28.263C26.291 30.1276 23.8372 31.2987 21.2081 31.584C18.5791 31.8694 15.9312 31.2519 13.6996 29.833L27.6013 15.933C28.0702 15.464 28.3337 14.828 28.3337 14.1647C28.3337 13.5014 28.0702 12.8654 27.6013 12.3964C27.1323 11.9274 26.4962 11.6639 25.8329 11.6639C25.1697 11.6639 24.5336 11.9274 24.0646 12.3964L10.1662 26.2997C8.74742 24.0681 8.12992 21.4202 8.41524 18.7911C8.70056 16.1621 9.87171 13.7083 11.7362 11.833C15.5362 8.03303 26.2513 5.7797 34.2746 4.9997C34.3717 4.98926 34.4698 5.00077 34.5618 5.03337C34.6539 5.06596 34.7374 5.11882 34.8063 5.18803C34.8772 5.25617 34.9315 5.3397 34.9651 5.43217C34.9986 5.52465 35.0104 5.6236 34.9996 5.72137C34.2579 13.708 32.0262 24.403 28.1663 28.263Z" fill="#0098DA"/>
</g>
<defs>
<clipPath id="clip0_2127_1356">
<rect width="40" height="40" fill="white"/>
</clipPath>
</defs>
</svg>
