<svg width="48" height="49" viewBox="0 0 48 49" fill="none" xmlns="http://www.w3.org/2000/svg">
<g clip-path="url(#clip0_2127_1363)">
<path d="M37 10.5H34V9.5C34 7.64349 33.2625 5.86301 31.9497 4.55025C30.637 3.2375 28.8565 2.5 27 2.5H7C5.14348 2.5 3.36301 3.2375 2.05025 4.55025C0.737498 5.86301 0 7.64349 0 9.5L0 40.5H6.116C6.04274 40.8284 6.00386 41.1635 6 41.5C6 42.8261 6.52678 44.0979 7.46447 45.0355C8.40215 45.9732 9.67392 46.5 11 46.5C12.3261 46.5 13.5979 45.9732 14.5355 45.0355C15.4732 44.0979 16 42.8261 16 41.5C15.9961 41.1635 15.9573 40.8284 15.884 40.5H32.116C32.0427 40.8284 32.0039 41.1635 32 41.5C32 42.8261 32.5268 44.0979 33.4645 45.0355C34.4021 45.9732 35.6739 46.5 37 46.5C38.3261 46.5 39.5979 45.9732 40.5355 45.0355C41.4732 44.0979 42 42.8261 42 41.5C41.9961 41.1635 41.9573 40.8284 41.884 40.5H48V21.5C47.9963 18.5838 46.8362 15.788 44.7741 13.7259C42.712 11.6638 39.9162 10.5037 37 10.5ZM28 34.5H6V9.5C6 9.23478 6.10536 8.98043 6.29289 8.79289C6.48043 8.60536 6.73478 8.5 7 8.5H27C27.2652 8.5 27.5196 8.60536 27.7071 8.79289C27.8946 8.98043 28 9.23478 28 9.5V34.5ZM37 16.5C38.3261 16.5 39.5979 17.0268 40.5355 17.9645C41.4732 18.9021 42 20.1739 42 21.5V26.5H34V16.5H37Z" fill="#0098DA"/>
</g>
<defs>
<clipPath id="clip0_2127_1363">
<rect width="48" height="48" fill="white" transform="translate(0 0.5)"/>
</clipPath>
</defs>
</svg>
