<svg width="70" height="79" viewBox="0 0 70 79" fill="none" xmlns="http://www.w3.org/2000/svg">
<path fill-rule="evenodd" clip-rule="evenodd" d="M35.0146 13.1365L49.2817 35.7637L55.0289 32.2619L34.9651 0.588623L10.7378 39.1922L34.6368 53.4075L53.3867 42.3117L60.6929 54.1263L35.1086 70.4355L9.27383 54.1966L15.6731 43.9886L9.84174 40.6213L0 56.3203L34.8613 78.2358L70 56.1428L55.6691 33.2833L34.9651 45.9323L20.1896 36.7844L35.0146 13.1365Z" fill="#858EAD"/>
<path fill-rule="evenodd" clip-rule="evenodd" d="M43.0178 39.2973L35.0837 26.8433L26.4435 40.6566L34.965 45.9323L48.632 37.7438L58.4917 53.3499L35.005 68.2106L11.8683 53.545L17.2409 44.9752L21.9735 47.7323L19.4767 51.6627L35.0218 61.6266L50.923 51.5657L47.2715 45.9307L34.6367 53.4074L18.1004 43.5715L35.2031 16.323L47.7975 36.4126L43.0178 39.2973Z" fill="#A3AAC2"/>
</svg>
