<?xml version="1.0" encoding="UTF-8"?>
<!DOCTYPE svg PUBLIC "-//W3C//DTD SVG 1.1//EN" "http://www.w3.org/Graphics/SVG/1.1/DTD/svg11.dtd">
<!-- Creator: CorelDRAW 2021 (64 Bit) -->
<svg xmlns="http://www.w3.org/2000/svg" xml:space="preserve" width="177.364mm" height="116.415mm" version="1.1" style="shape-rendering:geometricPrecision; text-rendering:geometricPrecision; image-rendering:optimizeQuality; fill-rule:evenodd; clip-rule:evenodd"
viewBox="0 0 17722.15 11632.13"
 xmlns:xlink="http://www.w3.org/1999/xlink"
 xmlns:xodm="http://www.corel.com/coreldraw/odm/2003">
 <defs>
  <style type="text/css">
   <![CDATA[
    .fil0 {fill:#09A573}
    .fil1 {fill:#FEFEFE;fill-rule:nonzero}
   ]]>
  </style>
 </defs>
 <g id="Camada_x0020_1">
  <metadata id="CorelCorpID_0Corel-Layer"/>
  <g id="_2606941015456">
   <polygon class="fil0" points="8861.08,0 13291.59,2908.03 17722.15,5816.07 13291.59,8724.11 8861.08,11632.13 4430.56,8724.11 -0,5816.07 4430.56,2908.03 "/>
   <path class="fil1" d="M4753.08 5328.14c-11.91,-121.52 -56.01,-212.12 -132.27,-271.68 -76.25,-59.58 -190.67,-89.38 -343.21,-89.38 -281.19,0 -421.83,96.5 -421.83,289.57 0,69.09 29.19,126.9 87.59,173.39 58.37,46.46 151.94,85.2 280.62,116.19 152.55,35.76 284.81,69.12 396.83,100.11 112.03,30.97 214.5,66.73 307.45,107.21 52.44,21.46 101.9,48.29 148.36,80.45 46.46,32.19 85.8,72.11 117.96,119.79 32.19,47.63 57.8,104.86 76.87,171.59 19.09,66.71 28.61,147.76 28.61,243.08 0,114.41 -23.81,215.71 -71.49,303.88 -47.68,88.19 -112.02,162.66 -193.03,223.42 -81.04,60.8 -176.36,107.26 -286.02,139.46 -109.63,32.15 -225.23,48.24 -346.76,48.24 -345.58,0 -605.39,-66.74 -779.35,-200.17 -173.97,-133.48 -265.75,-331.31 -275.26,-593.49l479.01 0c2.4,121.57 51.87,217.52 148.36,287.82 96.53,70.28 217.51,105.44 362.89,105.44 157.3,0 276.45,-28.57 357.49,-85.8 81.04,-57.18 121.53,-134.65 121.53,-232.36 0,-38.13 -4.76,-73.29 -14.27,-105.45 -9.55,-32.19 -28.01,-61.38 -55.44,-87.6 -27.4,-26.22 -64.92,-49.45 -112.6,-69.69 -47.67,-20.29 -109.62,-38.74 -185.91,-55.41 -181.12,-38.18 -337.82,-76.87 -470.12,-116.21 -132.26,-39.32 -241.28,-88.17 -327.09,-146.58 -85.8,-58.4 -148.96,-129.29 -189.49,-212.71 -40.53,-83.39 -60.77,-189.49 -60.77,-318.16 0,-97.71 17.89,-189.5 53.62,-275.26 35.77,-85.81 90.56,-160.31 164.46,-223.44 73.89,-63.16 165.06,-113.25 273.51,-150.16 108.4,-36.93 236.52,-55.43 384.27,-55.43 143.04,0 271.72,18.5 386.1,55.43 114.42,36.91 212.74,89.36 294.97,157.27 82.18,67.96 145.96,150.14 191.25,246.68 45.27,96.54 70.31,203.2 75.07,319.96l-471.9 0zm1730.32 811.52c-23.86,23.85 -58.41,42.93 -103.69,57.23 -45.28,14.27 -110.81,29.8 -196.61,46.46 -133.48,26.2 -225.22,59.58 -275.3,100.1 -50.04,40.49 -75.07,98.9 -75.07,175.16 0,131.07 75.07,196.64 225.22,196.64 59.59,0 114.99,-10.13 166.25,-30.41 51.25,-20.23 95.35,-47.67 132.26,-82.23 36.95,-34.55 66.74,-75.06 89.38,-121.52 22.64,-46.51 33.98,-95.93 33.98,-148.36l3.58 -193.07zm32.15 861.59c-14.31,-45.29 -23.82,-97.71 -28.58,-157.3 -54.84,61.98 -127.51,111.4 -218.07,148.36 -90.6,36.94 -195.46,55.41 -314.6,55.41 -202.59,0 -350.95,-44.68 -445.08,-134.06 -94.17,-89.38 -141.25,-205.54 -141.25,-348.55 0,-126.32 20.28,-227.01 60.8,-302.09 40.49,-75.06 96.5,-134.08 167.99,-176.97 71.5,-42.88 156.73,-74.47 255.62,-94.75 98.9,-20.22 206.77,-38.73 323.55,-55.39 116.78,-16.67 195.43,-38.74 235.95,-66.15 40.49,-27.39 60.77,-72.09 60.77,-134.04 0,-57.22 -26.83,-101.91 -80.44,-134.09 -53.62,-32.15 -125.73,-48.25 -216.29,-48.25 -107.26,0 -184.13,23.83 -230.58,71.49 -46.5,47.69 -75.69,110.85 -87.6,189.5l-432.56 0c2.37,-90.61 17.28,-174 44.67,-250.25 27.4,-76.26 71.5,-141.83 132.26,-196.65 60.81,-54.8 140.03,-97.1 237.75,-126.9 97.71,-29.8 216.89,-44.68 357.48,-44.68 138.24,0 255.62,15.5 352.16,46.46 96.54,30.99 173.97,75.69 232.38,134.06 58.36,58.39 100.68,131.08 126.9,218.05 26.22,87.04 39.34,185.32 39.34,294.98l0 1111.81 -432.59 0zm618.47 0l0 -2402.39 464.76 0 0 2402.39 -464.76 0z"/>
   <path class="fil1" d="M9068.61 6597.25c114.42,0 203.8,-32.15 268.14,-96.49 64.34,-64.38 96.53,-145.39 96.53,-243.11 0,-104.86 -31.58,-181.15 -94.75,-228.79 -63.16,-47.68 -150.75,-71.49 -262.78,-71.49l-636.32 0 0 639.89 629.17 0zm-629.17 -1558.68l0 514.8 625.6 0c200.22,0 300.29,-85.81 300.29,-257.4 0,-90.57 -25.6,-156.08 -76.86,-196.61 -51.22,-40.54 -135.23,-60.78 -252.01,-60.78l-597.02 0zm-479.05 1962.67l0 -2373.81 1169.03 0c233.55,0 411.1,57.81 532.67,173.41 121.53,115.6 182.3,273.46 182.3,473.69 0,102.48 -27.4,193.63 -82.22,273.48 -54.8,79.83 -123.94,136.45 -207.34,169.81 50.04,19.05 97.1,43.5 141.21,73.29 44.1,29.8 82.22,67.92 114.42,114.37 32.15,46.5 57.8,101.3 76.86,164.46 19.06,63.16 28.58,137.64 28.58,223.44 0,216.9 -72.67,389.11 -218.06,516.61 -145.39,127.51 -368.21,191.25 -668.51,191.25l-1068.92 0zm3206.76 -1051.04c-2.4,-64.34 -13.74,-120.95 -33.97,-169.82 -20.24,-48.86 -47.07,-89.37 -80.45,-121.52 -33.37,-32.2 -71.49,-56.01 -114.38,-71.5 -42.93,-15.52 -87.02,-23.24 -132.3,-23.24 -92.92,0 -173.36,33.93 -241.32,101.89 -67.93,67.92 -106.62,162.64 -116.17,284.2l718.58 0zm-732.89 293.15c7.15,133.48 45.88,239.52 116.21,318.17 70.27,78.66 162.67,117.96 277.05,117.96 76.25,0 143.6,-17.28 201.97,-51.83 58.41,-34.54 95.93,-82.83 112.63,-144.78l479.06 0c-54.84,181.13 -150.15,320.54 -286.03,418.25 -135.84,97.71 -297.9,146.58 -486.17,146.58 -586.33,0 -879.47,-319.36 -879.47,-958.08 0,-135.84 19.06,-258.6 57.22,-368.22 38.13,-109.62 93.53,-203.77 166.21,-282.42 72.72,-78.64 161.49,-138.84 266.36,-180.53 104.88,-41.72 225.23,-62.57 361.07,-62.57 271.72,0 477.27,87 616.68,260.96 139.42,174 209.13,436.18 209.13,786.52l-1211.92 0zm2513.25 -293.15c-2.4,-64.34 -13.74,-120.95 -33.97,-169.82 -20.24,-48.86 -47.07,-89.37 -80.45,-121.52 -33.37,-32.2 -71.49,-56.01 -114.38,-71.5 -42.93,-15.52 -87.02,-23.24 -132.3,-23.24 -92.92,0 -173.36,33.93 -241.32,101.89 -67.93,67.92 -106.62,162.64 -116.17,284.2l718.58 0zm-732.89 293.15c7.15,133.48 45.88,239.52 116.21,318.17 70.27,78.66 162.67,117.96 277.05,117.96 76.25,0 143.6,-17.28 201.97,-51.83 58.41,-34.54 95.93,-82.83 112.63,-144.78l479.06 0c-54.84,181.13 -150.15,320.54 -286.03,418.25 -135.84,97.71 -297.9,146.58 -486.17,146.58 -586.33,0 -879.47,-319.36 -879.47,-958.08 0,-135.84 19.06,-258.6 57.22,-368.22 38.13,-109.62 93.53,-203.77 166.21,-282.42 72.72,-78.64 161.49,-138.84 266.36,-180.53 104.88,-41.72 225.23,-62.57 361.07,-62.57 271.72,0 477.27,87 616.68,260.96 139.42,174 209.13,436.18 209.13,786.52l-1211.92 0zm1401.37 757.89l0 -1430 -260.96 0 0 -328.91 260.96 0c0,-428.99 249.08,-643.48 747.2,-643.48l0 375.38c-59.59,0 -107.87,4.15 -144.82,12.49 -36.91,8.37 -66.13,23.25 -87.55,44.7 -21.46,21.46 -36.38,49.46 -44.71,84.01 -8.33,34.55 -12.52,76.86 -12.52,126.9l300.3 0 0 328.91 -300.3 0 0 1430 -457.59 0z"/>
  </g>
 </g>
</svg>
