<svg width="32" height="32" viewBox="0 0 32 32" fill="none" xmlns="http://www.w3.org/2000/svg">
<path fill-rule="evenodd" clip-rule="evenodd" d="M15.7754 5.17116L21.7958 14.4963L24.221 13.0531L15.7545 0L5.53109 15.9092L15.6161 21.7677L23.528 17.1949L26.6111 22.0639L15.8151 28.7853L4.9133 22.0928L7.61373 17.886L5.15304 16.4982L1 22.9681L15.7108 32L30.5385 22.895L24.4911 13.474L15.7545 18.687L9.51958 14.917L15.7754 5.17116Z" fill="#3E4095"/>
<path fill-rule="evenodd" clip-rule="evenodd" d="M19.1526 15.9524L15.8046 10.8199L12.1586 16.5127L15.7545 18.6869L21.5217 15.3123L25.6823 21.7439L15.7714 27.8683L6.00818 21.8243L8.27532 18.2924L10.2724 19.4288L9.21868 21.0485L15.7784 25.1549L22.4884 21.0086L20.9476 18.6862L15.616 21.7676L8.63799 17.714L15.855 6.48438L21.1695 14.7637L19.1526 15.9524Z" fill="#0796E4"/>
</svg>
