<svg width="390" height="104" viewBox="0 0 390 104" fill="none" xmlns="http://www.w3.org/2000/svg">
<path fill-rule="evenodd" clip-rule="evenodd" d="M46.5194 17.0909L65.4742 47.1527L73.1098 42.5004L46.4537 0.420105L14.266 51.7077L46.0175 70.5937L70.928 55.8522L80.6349 71.5488L46.6443 93.2167L12.3209 71.6421L20.8229 58.0801L13.0755 53.6064L0 74.4636L46.3157 103.58L93 74.2279L73.9604 43.8573L46.4537 60.6625L26.8233 48.5088L46.5194 17.0909Z" fill="#3E4095"/>
<path fill-rule="evenodd" clip-rule="evenodd" d="M57.1522 51.8475L46.6111 35.3014L35.1321 53.6534L46.4535 60.6625L64.6111 49.7836L77.7104 70.5174L46.5066 90.2609L15.7678 70.7766L22.9057 59.3909L29.1933 63.0539L25.8761 68.2757L46.5289 81.5135L67.6549 68.1469L62.8035 60.6604L46.0173 70.5937L24.0476 57.526L46.7698 21.3245L63.5023 48.0149L57.1522 51.8475Z" fill="#0098DA"/>
<path fill-rule="evenodd" clip-rule="evenodd" d="M138.634 36.4208C134.995 36.4208 133 38.3798 133 42.0623V51.3076C133 52.0517 133.352 52.5219 134.056 52.7572L143.329 55.8128V61.0231C143.329 62.0809 142.781 62.5901 141.764 62.5901H139.886C138.908 62.5901 138.321 62.0809 138.321 61.0231V58.0067C138.321 57.5758 138.125 57.3798 137.695 57.3798H133.626C133.235 57.3798 133 57.5758 133 58.0067V62.1202C133 65.8027 134.995 67.7615 138.634 67.7615H143.016C146.693 67.7615 148.649 65.8027 148.649 62.1202V53.0706C148.649 52.3265 148.297 51.8956 147.632 51.6211L138.321 48.5655V43.1592C138.321 42.1405 138.908 41.5921 139.886 41.5921H141.763C142.82 41.5921 143.328 42.1405 143.328 43.1592V46.215C143.328 46.6067 143.563 46.8417 143.955 46.8417H148.023C148.454 46.8417 148.649 46.6067 148.649 46.215V42.0626C148.649 38.3801 146.693 36.4211 143.016 36.4211H138.634V36.4208Z" fill="#3E4095"/>
<path fill-rule="evenodd" clip-rule="evenodd" d="M168.778 67.7608C169.248 67.7608 169.404 67.5255 169.326 67.0946L162.831 36.9688C162.753 36.5771 162.518 36.4204 162.166 36.4204H156.728C156.376 36.4204 156.141 36.5771 156.062 36.9688L149.568 67.0946C149.451 67.5255 149.647 67.7608 150.077 67.7608H154.263C154.615 67.7608 154.811 67.5648 154.889 67.2123L155.945 61.4929H162.909L164.005 67.2123C164.083 67.5648 164.279 67.7608 164.631 67.7608H168.778H168.778ZM161.931 56.9485H156.924L159.428 43.2763L161.931 56.9485Z" fill="#3E4095"/>
<path fill-rule="evenodd" clip-rule="evenodd" d="M176.701 62.5894H186.012C186.442 62.5894 186.638 62.8247 186.638 63.2164V67.1338C186.638 67.5648 186.442 67.7608 186.012 67.7608H172.006C171.615 67.7608 171.38 67.5648 171.38 67.1338V37.0473C171.38 36.6556 171.615 36.4204 172.006 36.4204H176.075C176.505 36.4204 176.701 36.6556 176.701 37.0473V62.5894H176.701Z" fill="#3E4095"/>
<path fill-rule="evenodd" clip-rule="evenodd" d="M188.927 36.4204C188.497 36.4204 188.301 36.6556 188.301 37.0473V67.1338C188.301 67.5255 188.497 67.7608 188.927 67.7608H192.996C193.387 67.7608 193.622 67.5255 193.622 67.1338V37.0473C193.622 36.6556 193.387 36.4204 192.996 36.4204H188.927Z" fill="#3E4095"/>
<path fill-rule="evenodd" clip-rule="evenodd" d="M208.077 36.4204C207.647 36.4204 207.451 36.6556 207.451 37.0473V53.5791H207.216L201.27 36.9296C201.152 36.5771 200.918 36.4204 200.566 36.4204H196.692C196.301 36.4204 196.066 36.6556 196.066 37.0473V67.1339C196.066 67.5256 196.301 67.7608 196.692 67.7608H200.761C201.191 67.7608 201.387 67.5256 201.387 67.1339V50.5236H201.583L207.569 67.2513C207.686 67.6038 207.921 67.7605 208.273 67.7605H212.146C212.537 67.7605 212.772 67.5253 212.772 67.1336V37.047C212.772 36.6554 212.537 36.4201 212.146 36.4201H208.077V36.4204Z" fill="#3E4095"/>
<path fill-rule="evenodd" clip-rule="evenodd" d="M234.074 67.7608C234.544 67.7608 234.7 67.5255 234.622 67.0946L228.128 36.9688C228.049 36.5771 227.815 36.4204 227.462 36.4204H222.024C221.672 36.4204 221.437 36.5771 221.359 36.9688L214.865 67.0946C214.747 67.5255 214.943 67.7608 215.373 67.7608H219.559C219.911 67.7608 220.107 67.5648 220.185 67.2123L221.242 61.4929H228.206L229.301 67.2123C229.379 67.5648 229.575 67.7608 229.927 67.7608H234.074H234.074ZM227.228 56.9485H222.22L224.724 43.2763L227.228 56.9485ZM253.557 36.4207C249.919 36.4207 247.924 38.3797 247.924 42.0622V51.3075C247.924 52.0516 248.276 52.5218 248.98 52.7571L258.252 55.8126V61.023C258.252 62.0808 257.705 62.59 256.687 62.59H254.81C253.832 62.59 253.245 62.0808 253.245 61.023V58.0066C253.245 57.5757 253.049 57.3797 252.619 57.3797H248.55C248.159 57.3797 247.924 57.5757 247.924 58.0066V62.1201C247.924 65.8026 249.919 67.7613 253.557 67.7613H257.939C261.617 67.7613 263.573 65.8026 263.573 62.1201V53.0705C263.573 52.3264 263.221 51.8955 262.556 51.621L253.244 48.5654V43.1591C253.244 42.1404 253.831 41.592 254.809 41.592H256.687C257.744 41.592 258.252 42.1404 258.252 43.1591V46.2149C258.252 46.6066 258.487 46.8416 258.878 46.8416H262.947C263.377 46.8416 263.573 46.6066 263.573 46.2149V42.0625C263.573 38.38 261.617 36.421 257.939 36.421H253.557V36.4207Z" fill="#3E4095"/>
<path fill-rule="evenodd" clip-rule="evenodd" d="M266.019 62.1195C266.019 65.802 267.975 67.7608 271.653 67.7608H276.034C279.712 67.7608 281.668 65.802 281.668 62.1195V42.0619C281.668 38.3794 279.712 36.4204 276.034 36.4204H271.653C267.975 36.4204 266.019 38.3794 266.019 42.0619V62.1195ZM272.787 62.7072C271.77 62.7072 271.222 62.198 271.222 61.1402V43.0413C271.222 42.0227 271.77 41.4742 272.787 41.4742H275.056C276.074 41.4742 276.621 42.0227 276.621 43.0413V61.1402C276.621 62.198 276.074 62.7072 275.056 62.7072H272.787Z" fill="#3E4095"/>
<path fill-rule="evenodd" clip-rule="evenodd" d="M289.434 62.5894H298.745C299.176 62.5894 299.371 62.8247 299.371 63.2164V67.1338C299.371 67.5648 299.176 67.7608 298.745 67.7608H284.739C284.348 67.7608 284.113 67.5648 284.113 67.1338V37.0473C284.113 36.6556 284.348 36.4204 284.739 36.4204H288.808C289.238 36.4204 289.434 36.6556 289.434 37.0473V62.5894H289.434Z" fill="#3E4095"/>
<path fill-rule="evenodd" clip-rule="evenodd" d="M316.644 37.0473C316.644 36.6556 316.487 36.4204 316.018 36.4204H301.62C301.268 36.4204 301.033 36.6556 301.033 37.0473V67.1338C301.033 67.5255 301.268 67.7608 301.62 67.7608H316.018C316.487 67.7608 316.644 67.5255 316.644 67.1338V63.2164C316.644 62.7854 316.487 62.5894 316.018 62.5894H306.237V54.676H313.709C314.101 54.676 314.336 54.441 314.336 54.0101V50.1316C314.336 49.7006 314.101 49.4654 313.709 49.4654H306.237V41.6304H316.018C316.487 41.6304 316.644 41.3562 316.644 40.9645V37.0467V37.0473Z" fill="#3E4095"/>
<path fill-rule="evenodd" clip-rule="evenodd" d="M318.698 67.1338C318.698 67.5648 318.894 67.7608 319.324 67.7608H328.714C332.391 67.7608 334.347 65.802 334.347 62.1195V42.1009C334.347 38.4187 332.391 36.4204 328.714 36.4204H319.324C318.894 36.4204 318.698 36.6556 318.698 37.0473V67.1338ZM324.019 62.5897V41.5917H327.618C328.635 41.5917 329.183 42.1402 329.183 43.198V61.0227C329.183 62.0805 328.635 62.5897 327.618 62.5897H324.019Z" fill="#3E4095"/>
<path fill-rule="evenodd" clip-rule="evenodd" d="M354.476 67.7608C354.945 67.7608 355.102 67.5255 355.023 67.0946L348.529 36.9688C348.45 36.5771 348.216 36.4204 347.864 36.4204H342.425C342.074 36.4204 341.839 36.5771 341.76 36.9688L335.266 67.0946C335.149 67.5255 335.344 67.7608 335.774 67.7608H339.961C340.313 67.7608 340.508 67.5648 340.587 67.2123L341.643 61.4929H348.607L349.702 67.2123C349.781 67.5648 349.977 67.7608 350.328 67.7608H354.475H354.476ZM347.629 56.9485H342.622L345.125 43.2763L347.629 56.9485Z" fill="#3E4095"/>
<path fill-rule="evenodd" clip-rule="evenodd" d="M356.295 67.1338C356.295 67.5648 356.491 67.7608 356.922 67.7608H366.311C369.989 67.7608 371.945 65.802 371.945 62.1195V42.1009C371.945 38.4187 369.989 36.4204 366.311 36.4204H356.922C356.491 36.4204 356.295 36.6556 356.295 37.0473V67.1338ZM361.616 62.5897V41.5917H365.215C366.233 41.5917 366.78 42.1402 366.78 43.198V61.0227C366.78 62.0805 366.233 62.5897 365.215 62.5897H361.616Z" fill="#3E4095"/>
<path fill-rule="evenodd" clip-rule="evenodd" d="M390 37.0473C390 36.6556 389.844 36.4204 389.374 36.4204H374.977C374.625 36.4204 374.39 36.6556 374.39 37.0473V67.1338C374.39 67.5255 374.625 67.7608 374.977 67.7608H389.374C389.844 67.7608 390 67.5255 390 67.1338V63.2164C390 62.7854 389.844 62.5894 389.374 62.5894H379.593V54.676H387.066C387.457 54.676 387.692 54.441 387.692 54.0101V50.1316C387.692 49.7006 387.457 49.4654 387.066 49.4654H379.593V41.6304H389.374C389.844 41.6304 390 41.3562 390 40.9645V37.0467V37.0473Z" fill="#3E4095"/>
</svg>
