<?xml version="1.0" encoding="UTF-8"?>
<!DOCTYPE svg PUBLIC "-//W3C//DTD SVG 1.1//EN" "http://www.w3.org/Graphics/SVG/1.1/DTD/svg11.dtd">
<!-- Creator: CorelDRAW 2021 (64 Bit) -->
<svg xmlns="http://www.w3.org/2000/svg" xml:space="preserve" width="103.99mm" height="94.8652mm" version="1.1" style="shape-rendering:geometricPrecision; text-rendering:geometricPrecision; image-rendering:optimizeQuality; fill-rule:evenodd; clip-rule:evenodd"
viewBox="0 0 8936.95 8152.76"
 xmlns:xlink="http://www.w3.org/1999/xlink"
 xmlns:xodm="http://www.corel.com/coreldraw/odm/2003">
 <defs>
  <style type="text/css">
   <![CDATA[
    .fil1 {fill:#0098DA}
    .fil0 {fill:#3E4095}
   ]]>
  </style>
 </defs>
 <g id="Camada_x0020_1">
  <metadata id="CorelCorpID_0Corel-Layer"/>
  <g id="_2172282029184">
   <polygon class="fil0" points="4469.61,971.77 5575.98,2724.12 6021.66,2452.93 4465.77,0 2587.01,2989.64 4440.31,4090.54 5894.31,3231.23 6460.89,4146.21 4476.9,5409.27 2473.48,4151.65 2969.73,3361.1 2517.52,3100.32 1754.32,4316.12 4457.72,6013.36 7182.63,4302.38 6071.31,2532.03 4465.77,3511.63 3319.97,2803.17 "/>
   <polygon class="fil1" points="5090.24,2997.79 4474.97,2033.29 3804.95,3103.06 4465.77,3511.63 5525.61,2877.48 6290.2,4086.09 4468.87,5236.97 2674.68,4101.2 3091.31,3437.51 3458.31,3651.03 3264.69,3955.42 4470.17,4727.07 5703.27,3947.91 5420.1,3511.51 4440.31,4090.54 3157.96,3328.8 4484.23,1218.55 5460.89,2774.38 "/>
  </g>
  <g id="_2172282029808">
   <path class="fil0" d="M195.44 6446.56c-126.22,0 -195.44,67.87 -195.44,195.45l0 320.3c0,25.78 12.22,42.07 36.65,50.22l321.66 105.86 0 180.51c0,36.65 -19,54.29 -54.29,54.29l-65.14 0c-33.93,0 -54.29,-17.64 -54.29,-54.29l0 -104.5c0,-14.93 -6.79,-21.72 -21.72,-21.72l-141.15 0c-13.57,0 -21.72,6.79 -21.72,21.72l0 142.51c0,127.58 69.22,195.44 195.44,195.44l152.01 0c127.58,0 195.44,-67.86 195.44,-195.44l0 -313.52c0,-25.78 -12.21,-40.71 -35.29,-50.22l-323.02 -105.86 0 -187.3c0,-35.29 20.36,-54.29 54.29,-54.29l65.14 0c36.65,0 54.29,19 54.29,54.29l0 105.87c0,13.57 8.15,21.71 21.72,21.71l141.15 0c14.93,0 21.72,-8.14 21.72,-21.71l0 -143.86c0,-127.58 -67.86,-195.45 -195.44,-195.45l-152.01 0z"/>
   <path class="fil0" d="M1241.17 7532.34c16.29,0 21.72,-8.15 19,-23.08l-225.3 -1043.7c-2.72,-13.57 -10.85,-19 -23.07,-19l-188.66 0c-12.21,0 -20.36,5.43 -23.08,19l-225.29 1043.7c-4.07,14.93 2.72,23.08 17.64,23.08l145.22 0c12.21,0 19,-6.79 21.72,-19l36.65 -198.15 241.58 0 38 198.15c2.72,12.21 9.51,19 21.72,19l143.86 0zm-237.51 -374.59l-173.72 0 86.86 -473.67 86.86 473.67z"/>
   <path class="fil0" d="M1516 7353.18l323.02 0c14.93,0 21.72,8.15 21.72,21.72l0 135.72c0,14.93 -6.79,21.72 -21.72,21.72l-485.88 0c-13.57,0 -21.72,-6.79 -21.72,-21.72l0 -1042.34c0,-13.57 8.15,-21.72 21.72,-21.72l141.15 0c14.93,0 21.72,8.15 21.72,21.72l0 884.9z"/>
   <path class="fil0" d="M1940.13 6446.56c-14.93,0 -21.72,8.15 -21.72,21.72l0 1042.34c0,13.57 6.79,21.72 21.72,21.72l141.15 0c13.57,0 21.72,-8.15 21.72,-21.72l0 -1042.34c0,-13.57 -8.15,-21.72 -21.72,-21.72l-141.15 0z"/>
   <path class="fil0" d="M2604.49 6446.56c-14.93,0 -21.72,8.15 -21.72,21.72l0 572.74 -8.14 0 -206.3 -576.82c-4.07,-12.21 -12.21,-17.64 -24.42,-17.64l-134.37 0c-13.57,0 -21.72,8.15 -21.72,21.72l0 1042.34c0,13.57 8.15,21.72 21.72,21.72l141.15 0c14.93,0 21.72,-8.15 21.72,-21.72l0 -575.46 6.79 0 207.65 579.53c4.07,12.21 12.21,17.64 24.43,17.64l134.36 0c13.57,0 21.72,-8.15 21.72,-21.72l0 -1042.34c0,-13.57 -8.15,-21.72 -21.72,-21.72l-141.15 0z"/>
   <path class="fil0" d="M3506.35 7532.34c16.29,0 21.72,-8.15 19,-23.08l-225.3 -1043.7c-2.72,-13.57 -10.85,-19 -23.07,-19l-188.66 0c-12.21,0 -20.36,5.43 -23.08,19l-225.29 1043.7c-4.07,14.93 2.72,23.08 17.64,23.08l145.22 0c12.21,0 19,-6.79 21.72,-19l36.65 -198.15 241.58 0 38 198.15c2.72,12.21 9.51,19 21.72,19l143.86 0zm-237.51 -374.59l-173.72 0 86.86 -473.67 86.86 473.67zm913.39 -711.18c-126.22,0 -195.43,67.87 -195.43,195.45l0 320.3c0,25.78 12.22,42.07 36.64,50.22l321.66 105.86 0 180.51c0,36.65 -19,54.29 -54.29,54.29l-65.14 0c-33.93,0 -54.29,-17.64 -54.29,-54.29l0 -104.5c0,-14.93 -6.79,-21.72 -21.72,-21.72l-141.15 0c-13.56,0 -21.71,6.79 -21.71,21.72l0 142.51c0,127.58 69.21,195.44 195.43,195.44l152.01 0c127.58,0 195.44,-67.86 195.44,-195.44l0 -313.52c0,-25.78 -12.21,-40.71 -35.29,-50.22l-323.02 -105.86 0 -187.3c0,-35.29 20.36,-54.29 54.29,-54.29l65.14 0c36.65,0 54.29,19 54.29,54.29l0 105.87c0,13.57 8.15,21.71 21.72,21.71l141.15 0c14.93,0 21.72,-8.14 21.72,-21.71l0 -143.86c0,-127.58 -67.86,-195.45 -195.44,-195.45l-152.01 0z"/>
   <path class="fil0" d="M4614.49 7336.9c0,127.58 67.86,195.44 195.44,195.44l152.01 0c127.58,0 195.44,-67.86 195.44,-195.44l0 -694.89c0,-127.58 -67.86,-195.45 -195.44,-195.45l-152.01 0c-127.58,0 -195.44,67.87 -195.44,195.45l0 694.89zm234.8 20.36c-35.29,0 -54.29,-17.64 -54.29,-54.29l0 -627.03c0,-35.29 19,-54.29 54.29,-54.29l78.72 0c35.29,0 54.29,19 54.29,54.29l0 627.03c0,36.65 -19,54.29 -54.29,54.29l-78.72 0z"/>
   <path class="fil0" d="M5426.78 7353.18l323.02 0c14.93,0 21.72,8.15 21.72,21.72l0 135.72c0,14.93 -6.79,21.72 -21.72,21.72l-485.88 0c-13.57,0 -21.72,-6.79 -21.72,-21.72l0 -1042.34c0,-13.57 8.15,-21.72 21.72,-21.72l141.15 0c14.93,0 21.72,8.15 21.72,21.72l0 884.9z"/>
   <path class="fil0" d="M6370.72 6468.28c0,-13.57 -5.43,-21.72 -21.72,-21.72l-499.45 0c-12.21,0 -20.36,8.15 -20.36,21.72l0 1042.34c0,13.57 8.15,21.72 20.36,21.72l499.45 0c16.29,0 21.72,-8.15 21.72,-21.72l0 -135.72c0,-14.93 -5.43,-21.72 -21.72,-21.72l-339.3 0 0 -274.16 259.23 0c13.57,0 21.72,-8.14 21.72,-23.07l0 -134.37c0,-14.93 -8.15,-23.08 -21.72,-23.08l-259.23 0 0 -271.44 339.3 0c16.29,0 21.72,-9.5 21.72,-23.07l0 -135.73z"/>
   <path class="fil0" d="M6441.97 7510.62c0,14.93 6.79,21.72 21.72,21.72l325.73 0c127.58,0 195.44,-67.86 195.44,-195.44l0 -693.54c0,-127.57 -67.86,-196.8 -195.44,-196.8l-325.73 0c-14.93,0 -21.72,8.15 -21.72,21.72l0 1042.34zm184.58 -157.43l0 -727.47 124.86 0c35.29,0 54.29,19 54.29,55.65l0 617.53c0,36.65 -19,54.29 -54.29,54.29l-124.86 0z"/>
   <path class="fil0" d="M7683.14 7532.34c16.29,0 21.72,-8.15 19,-23.08l-225.3 -1043.7c-2.72,-13.57 -10.85,-19 -23.07,-19l-188.66 0c-12.21,0 -20.36,5.43 -23.08,19l-225.29 1043.7c-4.07,14.93 2.72,23.08 17.64,23.08l145.22 0c12.21,0 19,-6.79 21.72,-19l36.65 -198.15 241.58 0 38 198.15c2.72,12.21 9.51,19 21.72,19l143.86 0zm-237.51 -374.59l-173.72 0 86.86 -473.67 86.86 473.67z"/>
   <path class="fil0" d="M7746.25 7510.62c0,14.93 6.79,21.72 21.72,21.72l325.73 0c127.58,0 195.44,-67.86 195.44,-195.44l0 -693.54c0,-127.57 -67.86,-196.8 -195.44,-196.8l-325.73 0c-14.93,0 -21.72,8.15 -21.72,21.72l0 1042.34zm184.58 -157.43l0 -727.47 124.86 0c35.29,0 54.29,19 54.29,55.65l0 617.53c0,36.65 -19,54.29 -54.29,54.29l-124.86 0z"/>
   <path class="fil0" d="M8915.49 6468.28c0,-13.57 -5.43,-21.72 -21.72,-21.72l-499.45 0c-12.21,0 -20.36,8.15 -20.36,21.72l0 1042.34c0,13.57 8.15,21.72 20.36,21.72l499.45 0c16.29,0 21.72,-8.15 21.72,-21.72l0 -135.72c0,-14.93 -5.43,-21.72 -21.72,-21.72l-339.3 0 0 -274.16 259.23 0c13.57,0 21.72,-8.14 21.72,-23.07l0 -134.37c0,-14.93 -8.15,-23.08 -21.72,-23.08l-259.23 0 0 -271.44 339.3 0c16.29,0 21.72,-9.5 21.72,-23.07l0 -135.73z"/>
   <polygon class="fil1" points="2954,7856.82 60.51,7856.82 60.51,7930.71 2954,7930.71 "/>
   <polygon class="fil1" points="6043.49,7856.82 6043.49,7930.71 8936.95,7930.71 8936.95,7856.82 "/>
   <path class="fil1" d="M3315.73 7685.62l114.81 0c72.58,0 108.2,40.31 108.2,114.21l0 233.53c0,73.91 -35.62,114.13 -108.2,114.13l-114.81 0 0 -461.87zm72.58 65.99l0 329.89 40.9 0c23.1,0 36.95,-11.83 36.95,-44.87l0 -240.16c0,-32.96 -13.85,-44.86 -36.95,-44.86l-40.9 0z"/>
   <polygon class="fil1" points="3657.56,7880.29 3757.2,7880.29 3757.2,7946.26 3657.56,7946.26 3657.56,8081.5 3782.95,8081.5 3782.95,8147.49 3584.99,8147.49 3584.99,7685.62 3782.95,7685.62 3782.95,7751.61 3657.56,7751.61 "/>
   <path class="fil1" d="M3925.54 7680.36c70.58,0 106.88,42.21 106.88,116.11l0 14.54 -68.65 0 0 -19.1c0,-33.02 -13.18,-45.58 -36.26,-45.58 -23.09,0 -36.28,12.56 -36.28,45.58 0,95.01 141.83,112.76 141.83,244.72 0,73.91 -36.94,116.12 -108.2,116.12 -71.26,0 -108.21,-42.21 -108.21,-116.12l0 -28.31 68.62 0 0 32.95c0,33.04 14.52,44.88 37.62,44.88 23.08,0 37.58,-11.84 37.58,-44.88 0,-95.02 -141.86,-112.84 -141.86,-244.8 0,-73.9 36.3,-116.11 106.92,-116.11z"/>
   <path class="fil1" d="M4074.72 7685.62l114.76 0c72.63,0 108.22,40.31 108.22,114.21l0 233.53c0,73.91 -35.59,114.13 -108.22,114.13l-114.76 0 0 -461.87zm72.54 65.99l0 329.89 40.94 0c23.08,0 36.95,-11.83 36.95,-44.87l0 -240.16c0,-32.96 -13.87,-44.86 -36.95,-44.86l-40.94 0z"/>
   <polygon class="fil1" points="4416.54,7880.29 4516.17,7880.29 4516.17,7946.26 4416.54,7946.26 4416.54,8081.5 4541.93,8081.5 4541.93,8147.49 4344,8147.49 4344,7685.62 4541.93,7685.62 4541.93,7751.61 4416.54,7751.61 "/>
   <path class="fil1" d="M4734.01 7743.7c56.07,0 68.61,-27.05 79.82,-58.08l48.86 0 0 461.87 -72.61 0 0 -352.29 -56.07 0 0 -51.5z"/>
   <path class="fil1" d="M5163.64 8032.72c0,77.82 -35.67,120.03 -110.85,120.03 -71.25,0 -108.2,-42.21 -108.2,-116.12l0 -11.84 68.61 0 0 16.48c0,33.04 14.48,45.51 37.59,45.51 25.74,0 40.23,-12.48 40.23,-56.7l0 -84.45c-12.52,26.39 -34.95,40.86 -67.27,40.86 -53.45,0 -80.53,-37.58 -80.53,-105.56l0 -84.45c0,-73.9 38.95,-116.11 110.2,-116.11 71.25,0 110.21,42.21 110.21,116.11l0 236.25zm-72.62 -157.72l0 -83.1c0,-33.02 -14.49,-44.87 -37.59,-44.87 -23.11,0 -37.59,11.85 -37.59,44.87l0 83.1c0,33.04 14.48,45.51 37.59,45.51 23.1,0 37.59,-12.48 37.59,-45.51z"/>
   <path class="fil1" d="M5207.22 7800.47c0,-77.9 35.66,-120.11 110.85,-120.11 71.25,0 108.2,42.21 108.2,116.11l0 11.91 -68.61 0 0 -16.47c0,-33.02 -14.48,-45.58 -37.59,-45.58 -25.76,0 -40.23,12.56 -40.23,56.79l0 84.45c12.52,-26.4 34.95,-40.95 67.27,-40.95 53.45,0 80.53,37.67 80.53,105.56l0 84.45c0,73.91 -38.94,116.12 -110.2,116.12 -71.25,0 -110.2,-42.21 -110.2,-116.12l0 -236.16zm72.61 157.72l0 83.09c0,33.04 14.47,44.88 37.59,44.88 23.11,0 37.59,-11.84 37.59,-44.88l0 -83.09c0,-33.04 -14.48,-45.58 -37.59,-45.58 -23.12,0 -37.59,12.55 -37.59,45.58z"/>
   <path class="fil1" d="M5686.34 8032.72c0,77.82 -35.67,120.03 -110.84,120.03 -71.27,0 -108.22,-42.21 -108.22,-116.12l0 -11.84 68.62 0 0 16.48c0,33.04 14.47,45.51 37.59,45.51 25.75,0 40.23,-12.48 40.23,-56.7l0 -84.45c-12.51,26.39 -34.96,40.86 -67.27,40.86 -53.46,0 -80.53,-37.58 -80.53,-105.56l0 -84.45c0,-73.9 38.95,-116.11 110.2,-116.11 71.27,0 110.21,42.21 110.21,116.11l0 236.25zm-72.61 -157.72l0 -83.1c0,-33.02 -14.48,-44.87 -37.6,-44.87 -23.1,0 -37.59,11.85 -37.59,44.87l0 83.1c0,33.04 14.49,45.51 37.59,45.51 23.12,0 37.6,-12.48 37.6,-45.51z"/>
  </g>
 </g>
</svg>
