<svg width="413" height="287" viewBox="0 0 413 287" fill="none" xmlns="http://www.w3.org/2000/svg">
<path d="M0.769287 276.335L8.48323 270.428C9.38657 271.853 10.5679 272.999 11.9929 273.833C13.4176 274.702 14.9462 275.293 16.5444 275.606C18.1431 275.883 19.6721 275.918 21.0963 275.675C22.5561 275.397 23.7375 274.876 24.6756 274.077C25.6486 273.243 26.1699 272.166 26.2739 270.776C26.3087 269.386 25.8918 268.309 25.0577 267.51C24.1892 266.746 23.0078 266.155 21.5828 265.772C20.1234 265.39 18.5251 265.078 16.8225 264.869C14.8762 264.591 12.9655 264.104 11.1236 263.444C9.24737 262.784 7.57952 261.881 6.0853 260.664C4.59109 259.483 3.4097 257.954 2.54116 256.077C1.67225 254.201 1.25538 251.943 1.25538 249.232C1.42939 246.904 2.01952 244.854 3.06244 243.082C4.10499 241.309 5.45962 239.85 7.12784 238.634C8.79569 237.453 10.6724 236.549 12.7223 235.958C14.807 235.367 16.9617 235.055 19.1856 235.055C22.4173 235.02 25.4749 235.715 28.359 237.07C31.243 238.46 33.7105 240.684 35.7953 243.742L27.386 249.371C26.3435 247.772 25.0925 246.591 23.7031 245.827C22.3129 245.097 20.7842 244.715 19.1856 244.715C17.865 244.715 16.6489 244.889 15.5715 245.236C14.4597 245.549 13.5564 246.07 12.8611 246.8C12.1662 247.529 11.7493 248.433 11.6797 249.58V249.649C11.7145 250.97 12.1662 251.977 12.9655 252.672C13.7644 253.367 14.7726 253.854 16.058 254.201C17.3438 254.548 18.6991 254.861 20.1586 255.139C22.3129 255.522 24.3976 256.043 26.4135 256.737C28.3938 257.397 30.166 258.371 31.7647 259.552C33.3281 260.734 34.5447 262.332 35.4136 264.243C36.2821 266.189 36.6645 268.587 36.5601 271.471C36.3169 273.799 35.6564 275.814 34.5447 277.586C33.4329 279.359 32.0083 280.853 30.2708 282.069C28.5333 283.25 26.5871 284.189 24.4676 284.779C22.3133 285.405 20.1241 285.718 17.8654 285.718C15.7111 285.718 13.5916 285.37 11.5065 284.675C9.42175 283.981 7.47586 282.938 5.63438 281.548C3.79252 280.158 2.15947 278.421 0.769662 276.335L0.769287 276.335ZM36.5321 285.022L53.767 235.819H63.5661L81.2179 285.022H70.5155L66.2068 273.764H51.5431C51.0566 275.119 50.5701 276.405 50.1533 277.551C49.7364 278.733 49.3192 279.914 48.8675 281.096C48.4506 282.277 47.9642 283.597 47.4429 285.022H36.5317H36.5321ZM59.049 246.66H58.2845L56.8947 253.749L54.1147 264.382H63.5661L60.4384 253.68L59.0486 246.66H59.049ZM113.645 274.737V285.022H82.1635V235.819H92.3794V274.737H113.645ZM129.282 247.772C129.178 249.927 129.629 251.629 130.707 252.845C131.749 254.096 133.209 255 135.05 255.66C136.892 256.286 138.942 256.841 141.166 257.224C143.425 257.641 145.649 258.127 147.907 258.683C150.131 259.205 152.181 260.004 154.022 261.046C155.864 262.054 157.324 263.513 158.366 265.39C159.444 267.266 159.895 269.733 159.791 272.791C159.617 275.502 158.783 277.795 157.289 279.671C155.83 281.513 153.919 282.972 151.59 283.98C149.262 285.023 146.761 285.648 144.085 285.822C141.374 285.996 138.733 285.787 136.127 285.162C133.486 284.502 131.158 283.459 129.108 281.965C127.058 280.505 125.529 278.629 124.487 276.335L128.17 274.668H128.24C129.004 276.335 130.151 277.691 131.714 278.803C133.278 279.88 135.085 280.679 137.101 281.2C139.081 281.687 141.132 281.895 143.251 281.825C145.336 281.721 147.282 281.339 149.123 280.644C150.93 279.95 152.424 278.907 153.641 277.586C154.822 276.266 155.483 274.633 155.691 272.652C155.865 270.255 155.448 268.343 154.44 266.918C153.398 265.529 151.973 264.452 150.166 263.687C148.324 262.922 146.309 262.297 144.085 261.81C141.861 261.358 139.602 260.872 137.378 260.351C135.12 259.829 133.07 259.1 131.193 258.196C129.352 257.258 127.857 255.972 126.78 254.305C125.668 252.637 125.182 250.413 125.251 247.633C125.391 244.992 126.155 242.733 127.58 240.926C129.004 239.084 130.846 237.695 133.105 236.687C135.398 235.679 137.83 235.089 140.471 234.88C143.112 234.706 145.718 234.915 148.255 235.54C150.826 236.166 153.12 237.173 155.1 238.598C157.115 240.023 158.644 241.864 159.652 244.088L155.969 245.756C155.205 244.158 154.092 242.802 152.563 241.76C151.035 240.682 149.297 239.918 147.317 239.431C145.37 238.945 143.355 238.737 141.34 238.806C139.29 238.91 137.378 239.292 135.607 239.987C133.834 240.647 132.409 241.655 131.263 242.941C130.116 244.226 129.456 245.859 129.282 247.771L129.282 247.772ZM164.457 249.649C164.492 246.765 165.222 244.298 166.612 242.247C168.002 240.197 169.878 238.529 172.172 237.313C174.5 236.062 177.036 235.263 179.816 234.846C182.561 234.429 185.341 234.429 188.086 234.846C190.866 235.263 193.403 236.062 195.731 237.313C198.024 238.529 199.9 240.197 201.29 242.247C202.68 244.298 203.41 246.765 203.445 249.649V271.123C203.41 274.007 202.68 276.474 201.29 278.524C199.9 280.574 198.024 282.242 195.731 283.459C193.402 284.71 190.866 285.509 188.086 285.926C185.341 286.343 182.561 286.343 179.816 285.926C177.036 285.509 174.5 284.71 172.172 283.459C169.878 282.243 168.002 280.575 166.612 278.524C165.222 276.474 164.492 274.007 164.457 271.123V249.649ZM168.558 249.649V271.123C168.593 273.243 169.149 275.015 170.261 276.544C171.372 278.038 172.832 279.254 174.639 280.157C176.481 281.061 178.461 281.652 180.65 281.964C182.84 282.242 185.029 282.242 187.183 281.964C189.372 281.652 191.387 281.061 193.194 280.157C195.036 279.254 196.495 278.038 197.607 276.544C198.719 275.015 199.31 273.243 199.345 271.123V249.649C199.31 247.703 198.893 246.035 198.024 244.645C197.121 243.255 195.974 242.109 194.48 241.205C193.021 240.302 191.352 239.642 189.511 239.225C187.704 238.808 185.793 238.599 183.847 238.599C181.901 238.599 180.06 238.842 178.218 239.294C176.411 239.711 174.778 240.371 173.353 241.274C171.893 242.178 170.712 243.324 169.878 244.714C169.009 246.104 168.592 247.737 168.558 249.649H168.558ZM239.455 280.922V285.023C236.744 285.023 234.242 285.023 231.914 285.023C229.586 285.023 227.293 285.023 225.103 285.023C222.914 285.023 220.621 285.023 218.293 285.023C215.965 285.023 213.463 285.023 210.753 285.023V235.819H214.853V280.922H239.455V280.922ZM273.727 235.749V239.85H246.971V258.336H271.642V262.505H246.971V280.922H273.727V285.022H242.87V235.749H273.727ZM296.532 285.022H280.131V235.819C282.146 235.819 284.023 235.819 285.725 235.819C287.428 235.819 289.165 235.819 290.903 235.819C292.606 235.819 294.482 235.819 296.532 235.819C298.86 235.819 301.118 236.097 303.308 236.653C305.497 237.174 307.443 238.043 309.215 239.19C310.952 240.371 312.342 241.865 313.384 243.672C314.392 245.479 314.913 247.668 314.948 250.205V270.706C314.913 273.208 314.392 275.397 313.384 277.204C312.342 279.011 310.952 280.47 309.215 281.652C307.443 282.799 305.497 283.667 303.308 284.189C301.118 284.745 298.86 285.023 296.532 285.023V285.022ZM284.231 280.922H296.532C298.964 280.922 301.258 280.574 303.412 279.879C305.601 279.184 307.373 278.107 308.729 276.613C310.084 275.084 310.813 273.138 310.848 270.706V250.204C310.813 247.772 310.084 245.791 308.729 244.263C307.373 242.734 305.601 241.656 303.412 240.962C301.258 240.267 298.964 239.919 296.532 239.919H284.231V280.922ZM315.932 285.022L333.584 235.819H339.56L357.351 285.022H353.043L347.136 268.621H326.009L320.24 285.022H315.932ZM327.468 264.521H345.676L336.572 238.876L327.468 264.521ZM377.654 285.022H361.253V235.819C363.269 235.819 365.145 235.819 366.848 235.819C368.551 235.819 370.288 235.819 372.025 235.819C373.728 235.819 375.604 235.819 377.654 235.819C379.983 235.819 382.241 236.097 384.43 236.653C386.619 237.174 388.565 238.043 390.337 239.19C392.075 240.371 393.465 241.865 394.507 243.672C395.515 245.479 396.036 247.668 396.07 250.205V270.706C396.036 273.208 395.514 275.397 394.507 277.204C393.464 279.011 392.075 280.47 390.337 281.652C388.565 282.799 386.619 283.667 384.43 284.189C382.241 284.745 379.982 285.023 377.654 285.023V285.022ZM365.353 280.922H377.654C380.087 280.922 382.38 280.574 384.535 279.879C386.724 279.184 388.496 278.107 389.851 276.613C391.206 275.084 391.936 273.138 391.971 270.706V250.204C391.936 247.772 391.206 245.791 389.851 244.263C388.496 242.734 386.724 241.656 384.535 240.962C382.38 240.267 380.087 239.919 377.654 239.919H365.353V280.922Z" fill="#3E4095"/>
<path fill-rule="evenodd" clip-rule="evenodd" d="M402.894 236.993V239.963H404.247C405.329 239.963 406.043 239.827 406.378 239.543C406.693 239.26 406.861 238.893 406.861 238.441C406.861 238 406.724 237.654 406.473 237.392C406.221 237.129 405.538 236.993 404.405 236.993H402.894ZM401.844 244.403V236.153H405.266C406.189 236.153 406.882 236.352 407.355 236.772C407.826 237.182 408.068 237.717 408.068 238.357C408.068 238.893 407.89 239.375 407.533 239.827C407.176 240.268 406.546 240.561 405.622 240.687C406.221 240.898 406.662 241.212 406.955 241.6C407.081 241.758 407.27 242.094 407.533 242.608C407.795 243.112 408.068 243.71 408.362 244.403H407.133C406.409 242.808 405.843 241.811 405.423 241.412C405.013 241.024 404.321 240.824 403.355 240.824H402.893V244.403H401.844L401.844 244.403ZM411.899 240.194C411.899 238.284 411.227 236.657 409.894 235.324C408.551 233.98 406.924 233.309 405.024 233.309C403.124 233.309 401.508 233.991 400.164 235.335C398.821 236.689 398.138 238.316 398.138 240.194C398.138 242.073 398.821 243.69 400.164 245.043C401.508 246.398 403.124 247.069 405.024 247.069C406.903 247.069 408.53 246.398 409.884 245.043C411.228 243.69 411.899 242.073 411.899 240.194V240.194ZM412.854 240.194C412.854 242.346 412.088 244.183 410.555 245.715C409.023 247.258 407.176 248.024 405.024 248.024C402.862 248.024 401.015 247.258 399.482 245.725C397.96 244.193 397.194 242.346 397.194 240.194C397.194 238.042 397.96 236.195 399.492 234.652C401.025 233.13 402.872 232.364 405.024 232.364C407.165 232.364 409.012 233.13 410.555 234.652C412.087 236.195 412.854 238.042 412.854 240.194H412.854Z" fill="#003893"/>
<path fill-rule="evenodd" clip-rule="evenodd" d="M198.462 36.2789L239.33 101.01L255.793 90.9917L198.32 0.383301L128.92 110.817L197.38 151.484L251.089 119.742L272.018 153.54L198.731 200.197L124.726 153.741L143.058 124.539L126.354 114.905L98.1616 159.817L198.023 222.512L298.678 159.309L257.627 93.9135L198.32 130.1L155.995 103.93L198.462 36.2789Z" fill="#3E4095"/>
<path fill-rule="evenodd" clip-rule="evenodd" d="M221.387 111.118L198.66 75.4905L173.91 115.007L198.32 130.1L237.47 106.675L265.713 151.32L198.435 193.832L132.159 151.878L147.549 127.361L161.106 135.249L153.953 146.493L198.483 174.997L244.032 146.215L233.572 130.094L197.38 151.484L150.011 123.346L199.002 45.3955L235.079 102.866L221.387 111.118Z" fill="#0796E4"/>
</svg>
